<svg width="939" height="81" viewBox="0 0 939 81" fill="none" xmlns="http://www.w3.org/2000/svg">
<path fill-rule="evenodd" clip-rule="evenodd" d="M375.637 16.0801H284.008L288.365 0H379.994C393.796 0 402.058 10.799 398.449 24.1201C394.839 37.4413 380.725 48.2403 366.924 48.2403H360.898L383.477 80.4894H360.643L338.065 48.2403H291.954L283.241 80.4004H266.581L277.473 40.2002L279.651 32.1602H287.981H371.28C375.881 32.1602 380.586 28.5605 381.789 24.1201C382.992 19.6797 380.238 16.0801 375.637 16.0801ZM109.081 16.0811H17.4515L21.8083 0.00102634H113.438C127.239 0.00102634 135.501 10.8 131.892 24.1212C128.283 37.4423 114.169 48.2413 100.367 48.2413H25.3977L16.6841 80.4015H0.0242596L10.9163 40.2013L13.0947 32.1612H21.4246H104.724C109.324 32.1612 114.029 28.5616 115.232 24.1212C116.435 19.6808 113.681 16.0811 109.081 16.0811ZM442.279 16.0811H533.908L538.265 0.00102634H446.635C432.834 0.00102634 418.72 10.8 415.11 24.1212C411.501 37.4423 419.763 48.2413 433.565 48.2413H500.204C504.805 48.2413 507.559 51.8409 506.356 56.2813C505.153 60.7217 500.448 64.3214 495.848 64.3214H404.218L399.862 80.4015H491.491C505.292 80.4015 519.407 69.6025 523.016 56.2813C526.625 42.9602 518.363 32.1612 504.561 32.1612H437.922C433.321 32.1612 430.567 28.5616 431.77 24.1212C432.973 19.6808 437.678 16.0811 442.279 16.0811ZM165.215 24.1212C166.418 19.6808 171.123 16.0811 175.723 16.0811H242.363C246.963 16.0811 249.717 19.6808 248.514 24.1212L239.801 56.2813C238.597 60.7217 233.893 64.3214 229.292 64.3214H162.653C158.052 64.3214 155.298 60.7217 156.501 56.2813L165.215 24.1212ZM180.08 0.00102634C166.278 0.00102634 152.164 10.8 148.555 24.1212L139.841 56.2813C136.232 69.6025 144.494 80.4015 158.296 80.4015H224.935C238.737 80.4015 252.851 69.6025 256.46 56.2813L265.174 24.1212C268.783 10.8 260.521 0.00102634 246.719 0.00102634H180.08ZM592.221 16.0811C578.419 16.0811 564.305 26.8801 560.696 40.2013C557.086 53.5224 565.349 64.3214 579.15 64.3214H654.12L649.763 80.4015H574.793C551.791 80.4015 538.02 62.4032 544.036 40.2013C550.051 17.9993 573.575 0.00102634 596.577 0.00102634H671.547L667.19 16.0811H592.221ZM677.284 40.2034L688.176 0.00318867H704.836L696.122 32.1634H779.422L788.135 0.00318867H804.795L793.903 40.2034L783.011 80.4036H766.351L775.065 48.2435H691.766L683.052 80.4036H666.392L677.284 40.2034ZM938.107 0.00102634L829.818 0.00102638L821.488 0.00102602L819.31 8.04107L810.596 40.2012L801.882 72.3614L799.704 80.4015H808.034L916.323 80.4015L920.68 64.3214L820.721 64.3214L825.077 48.2413H908.377L912.734 32.1612H829.434L833.791 16.0811H933.75L938.107 0.00102634Z" fill="#E0E4F3"/>
</svg>
